# Exported from Wings 3D 1.4.1
# mtllib barrel.mtl
o cylinder1
#32 vertices, 18 faces
v 0.26880000 0.43169280 -2.9733160e-17
v 0.24833882 0.43169280 0.10286531
v 0.19007030 0.43169280 0.19007030
v 0.10286531 0.43169280 0.24833882
v -1.7495530e-17 0.43169280 0.26880000
v -0.10286531 0.43169280 0.24833882
v -0.19007030 0.43169280 0.19007030
v -0.24833882 0.43169280 0.10286531
v -0.26880000 0.43169280 3.1853456e-18
v -0.24833882 0.43169280 -0.10286531
v -0.19007030 0.43169280 -0.19007030
v -0.10286531 0.43169280 -0.24833882
v -8.3332542e-17 0.43169280 -0.26880000
v 0.10286531 0.43169280 -0.24833882
v 0.19007030 0.43169280 -0.19007030
v 0.24833882 0.43169280 -0.10286531
v 0.26880000 -0.43169280 -2.9733160e-17
v 0.24833882 -0.43169280 0.10286531
v 0.19007030 -0.43169280 0.19007030
v 0.10286531 -0.43169280 0.24833882
v -1.7495530e-17 -0.43169280 0.26880000
v -0.10286531 -0.43169280 0.24833882
v -0.19007030 -0.43169280 0.19007030
v -0.24833882 -0.43169280 0.10286531
v -0.26880000 -0.43169280 3.1853456e-18
v -0.24833882 -0.43169280 -0.10286531
v -0.19007030 -0.43169280 -0.19007030
v -0.10286531 -0.43169280 -0.24833882
v -8.3332542e-17 -0.43169280 -0.26880000
v 0.10286531 -0.43169280 -0.24833882
v 0.19007030 -0.43169280 -0.19007030
v 0.24833882 -0.43169280 -0.10286531
vt 0.0000000e+0 0.56780675
vt 0.0000000e+0 0.74458344
vt 6.9388939e-17 5.5511151e-17
vt 1.3456325e-2 0.81223295
vt 1.3456325e-2 0.67693393
vt 5.1776695e-2 0.86958344
vt 5.1776695e-2 0.61958344
vt 5.7350487e-2 0.56780675
vt 5.7350487e-2 0.0000000e+0
vt 0.10912718 0.90790381
vt 0.10912718 0.58126307
vt 0.12500000 0.56780675
vt 0.12500000 5.5511151e-17
vt 0.17677670 0.92136014
vt 0.17677670 0.56780675
vt 0.19264951 0.56780675
vt 0.19264951 1.1102230e-16
vt 0.24442621 0.58126307
vt 0.24442621 0.90790381
vt 0.25000000 0.56780675
vt 0.25000000 0.0000000e+0
vt 0.25000000 0.56780675
vt 0.25000000 5.5511151e-17
vt 0.30177670 0.86958344
vt 0.30177670 0.61958344
vt 0.30735049 0.0000000e+0
vt 0.30735049 0.56780675
vt 0.34009707 0.81223295
vt 0.34009707 0.67693393
vt 0.35355339 0.74458344
vt 0.35355339 0.74458344
vt 0.36700972 0.67693393
vt 0.36700972 0.81223295
vt 0.37500000 0.0000000e+0
vt 0.37500000 0.56780675
vt 0.40533009 0.61958344
vt 0.40533009 0.86958344
vt 0.44264951 0.0000000e+0
vt 0.44264951 0.56780675
vt 0.46268057 0.90790381
vt 0.46268057 0.58126307
vt 0.50000000 0.0000000e+0
vt 0.50000000 0.56780675
vt 0.50000000 0.0000000e+0
vt 0.50000000 0.56780675
vt 0.53033009 0.56780675
vt 0.53033009 0.92136014
vt 0.55735049 0.0000000e+0
vt 0.55735049 0.56780675
vt 0.59797960 0.58126307
vt 0.59797960 0.90790381
vt 0.62500000 0.0000000e+0
vt 0.62500000 0.56780675
vt 0.65533009 0.61958344
vt 0.65533009 0.86958344
vt 0.69264951 0.0000000e+0
vt 0.69264951 0.56780675
vt 0.69365046 0.67693393
vt 0.69365046 0.81223295
vt 0.70710678 0.74458344
vt 0.75000000 0.0000000e+0
vt 0.75000000 0.56780675
vt 0.80735049 0.0000000e+0
vt 0.80735049 0.56780675
vt 0.87500000 0.0000000e+0
vt 0.87500000 0.56780675
vt 0.94264951 0.0000000e+0
vt 0.94264951 0.56780675
vt 1.00000000 0.0000000e+0
vt 1.00000000 0.56780675
vn 0.89090915 0.45418155 -1.8909105e-16
vn 0.82309273 0.45418155 0.34093617
vn 0.62996790 0.45418155 0.62996790
vn 0.34093617 0.45418155 0.82309273
vn 0.0000000e+0 0.45418155 0.89090915
vn -0.34093617 0.45418155 0.82309273
vn -0.62996790 0.45418155 0.62996790
vn -0.82309273 0.45418155 0.34093617
vn -0.89090915 0.45418155 1.2606070e-17
vn -0.82309273 0.45418155 -0.34093617
vn -0.62996790 0.45418155 -0.62996790
vn -0.34093617 0.45418155 -0.82309273
vn -1.2606070e-17 0.45418155 -0.89090915
vn 0.34093617 0.45418155 -0.82309273
vn 0.62996790 0.45418155 -0.62996790
vn 0.82309273 0.45418155 -0.34093617
vn 0.89090915 -0.45418155 -1.8909105e-16
vn 0.82309273 -0.45418155 0.34093617
vn 0.62996790 -0.45418155 0.62996790
vn 0.34093617 -0.45418155 0.82309273
vn 0.0000000e+0 -0.45418155 0.89090915
vn -0.34093617 -0.45418155 0.82309273
vn -0.62996790 -0.45418155 0.62996790
vn -0.82309273 -0.45418155 0.34093617
vn -0.89090915 -0.45418155 1.2606070e-17
vn -0.82309273 -0.45418155 -0.34093617
vn -0.62996790 -0.45418155 -0.62996790
vn -0.34093617 -0.45418155 -0.82309273
vn -1.2606070e-17 -0.45418155 -0.89090915
vn 0.34093617 -0.45418155 -0.82309273
vn 0.62996790 -0.45418155 -0.62996790
vn 0.82309273 -0.45418155 -0.34093617
# g cylinder1_cylinder1_auv
# usemtl cylinder1_auv
s 1
f 1/31/1 16/28/16 15/24/15 14/19/14 13/14/13 12/10/12 11/6/11 10/4/10 9/2/9 8/5/8 7/7/7 6/11/6 5/15/5 4/18/4 3/25/3 2/29/2
f 1/35/1 17/34/17 32/38/32 16/39/16
f 2/27/2 18/26/18 17/34/17 1/35/1
f 3/22/3 19/21/19 18/26/18 2/27/2
f 4/68/4 20/67/20 19/69/19 3/70/3
f 5/66/5 21/65/21 20/67/20 4/68/4
f 6/64/6 22/63/22 21/65/21 5/66/5
f 7/62/7 23/61/23 22/63/22 6/64/6
f 8/57/8 24/56/24 23/61/23 7/62/7
f 9/53/9 25/52/25 24/56/24 8/57/8
f 10/49/10 26/48/26 25/52/25 9/53/9
f 11/45/11 27/44/27 26/48/26 10/49/10
f 12/16/12 28/17/28 27/23/27 11/20/11
f 13/12/13 29/13/29 28/17/28 12/16/12
f 14/8/14 30/9/30 29/13/29 13/12/13
f 15/1/15 31/3/31 30/9/30 14/8/14
f 16/39/16 32/38/32 31/42/31 15/43/15
f 18/32/18 19/36/19 20/41/20 21/46/21 22/50/22 23/54/23 24/58/24 25/60/25 26/59/26 27/55/27 28/51/28 29/47/29 30/40/30 31/37/31 32/33/32 17/30/17
